<svg xmlns="http://www.w3.org/2000/svg" width="180" height="48" viewBox="0 0 180 48" role="img" aria-label="Rocket Catalog">
  <defs>
    <linearGradient id="grad" x1="0%" y1="0%" x2="100%" y2="100%">
      <stop offset="0%" stop-color="#f97316" />
      <stop offset="100%" stop-color="#f4a300" />
    </linearGradient>
  </defs>
  <g fill="none" fill-rule="evenodd">
    <path
      d="M22 4c6 1 11 5 11 12 0 6-3 12-8 15l-3 13-6-10c-5-1-9-5-9-11 0-8 7-18 15-19Z"
      fill="url(#grad)"
    />
    <path
      d="M22 12c-3 0-5 2-5 5 0 3 2 5 5 5s5-2 5-5c0-3-2-5-5-5Zm-9 17c2 3 5 5 9 5 4 0 7-2 9-5-2 1-5 2-9 2-4 0-7-1-9-2Z"
      fill="#fff"
      opacity=".9"
    />
    <text
      x="50"
      y="30"
      fill="#111827"
      font-family="'Montserrat', sans-serif"
      font-size="24"
      font-weight="700"
      letter-spacing="1"
    >
      ROCKET
    </text>
    <text
      x="50"
      y="44"
      fill="#f97316"
      font-family="'Source Sans 3', sans-serif"
      font-size="14"
      font-weight="600"
      letter-spacing="6"
    >
      CATALOG
    </text>
  </g>
</svg>
